PathFileType	4	(X/Y/Z)	./resultDataOpenSim/trcMotMarkerGrf/sub06/qtm-03-02.trc
DataRate	CameraRate	NumFrames	NumMarkers	Units	OrigDataRate	OrigDataStartFrame	OrigNumFrames
250.000000	250.000000	8	24	m	250.000000	440	502
Frame#	Time	L.Toe.Tip			R.Toe.Tip			L.Ankle.Lat			R.Ankle.Lat			L.Ankle.Med			R.Ankle.Med			L.Heel			R.Heel			L.Knee.Lat			R.Knee.Lat			L.Knee.Med			R.Knee.Med			L.Thigh.Upper			R.Thigh.Upper			L.ASIS			R.ASIS			V.Sacral			L.Acromium			R.Acromium			C7			L.Elbow			R.Elbow			L.Wrist.Lat			R.Wrist.Lat
		X1	Y1	Z1	X2	Y2	Z2	X3	Y3	Z3	X4	Y4	Z4	X5	Y5	Z5	X6	Y6	Z6	X7	Y7	Z7	X8	Y8	Z8	X9	Y9	Z9	X10	Y10	Z10	X11	Y11	Z11	X12	Y12	Z12	X13	Y13	Z13	X14	Y14	Z14	X15	Y15	Z15	X16	Y16	Z16	X17	Y17	Z17	X18	Y18	Z18	X19	Y19	Z19	X20	Y20	Z20	X21	Y21	Z21	X22	Y22	Z22	X23	Y23	Z23	X24	Y24	Z24

440	1.756	1.7582457	0.033651777	-0.016778101	1.1080957	0.075211282	0.14761678	1.6341501	0.06521593	-0.0414208	1.110219	0.21519127	0.18068135	1.6341623	0.079614079	0.045619253	1.1502047	0.20386602	0.10096048	1.5573409	0.038691483	0.0016807012	1.0890254	0.26084092	0.11658427	1.6827929	0.43644665	-0.063290992	1.457991	0.38496929	0.21490233	1.6580005	0.43388883	0.054853653	1.4563453	0.36218526	0.081849049	1.5226434	0.79960053	-0.13204585	1.4434313	0.75982362	0.20574823	1.581298	0.83576764	-0.076636827	1.5593469	0.81048019	0.16724104	1.381466	0.9017853	0.040839031	1.4972669	1.2989339	-0.15295401	1.5064421	1.2976062	0.21065721	1.4216135	1.3405379	0.030056594	1.4082235	0.9925542	-0.1878537	1.4739088	0.98052491	0.30008381	1.5078413	0.77435777	-0.24096529	1.6937736	0.86362322	0.27449985
441	1.76	1.7581865	0.033635507	-0.016917506	1.1231939	0.077322685	0.14851333	1.6341125	0.065123825	-0.041473514	1.1229023	0.21726211	0.18081995	1.6339708	0.079604247	0.045585431	1.1629743	0.20595731	0.10126298	1.5572618	0.038731806	0.0015772559	1.1008987	0.26221182	0.11668718	1.6848896	0.43596909	-0.063842005	1.4703229	0.38619672	0.21537543	1.6604021	0.43336098	0.054375904	1.4682734	0.36406004	0.082020422	1.5277986	0.80075318	-0.13225112	1.4515968	0.76068135	0.20538628	1.5868129	0.83682811	-0.077022981	1.5649693	0.81218207	0.16698661	1.3872867	0.90311333	0.040736224	1.5035393	1.3003708	-0.15314851	1.5118303	1.2991306	0.21055772	1.4275908	1.3420017	0.029694156	1.4164042	0.99312535	-0.1885202	1.4776713	0.98198533	0.29895689	1.5191388	0.77609237	-0.24068103	1.6956464	0.86101237	0.27504061
442	1.764	1.7581257	0.033625802	-0.017046199	1.1386079	0.079197738	0.14936818	1.6340472	0.0650466	-0.04151995	1.135763	0.21905776	0.18095406	1.6338079	0.079610063	0.045549159	1.1759124	0.20783405	0.10155185	1.5571661	0.038760131	0.0014582259	1.1128625	0.26330342	0.11676688	1.6868889	0.43555406	-0.064312953	1.4826754	0.38758783	0.21579807	1.6626247	0.43290126	0.053974037	1.4801405	0.36605132	0.082073141	1.5331975	0.80186631	-0.13248825	1.459692	0.7615975	0.20505313	1.5922361	0.83791027	-0.077379963	1.5705548	0.81394439	0.16674987	1.393075	0.90446318	0.04062255	1.5097593	1.3019059	-0.15332911	1.5171581	1.3007153	0.21048418	1.4335059	1.3435141	0.029333505	1.4245873	0.99379028	-0.18917231	1.4821255	0.98347383	0.29778156	1.5304732	0.77796731	-0.24035346	1.6974014	0.85854798	0.2755875
443	1.768	1.7580713	0.033620631	-0.017160968	1.1542486	0.080783659	0.15036791	1.6339712	0.064967029	-0.041526317	1.1488103	0.2205687	0.18108251	1.6338018	0.079671882	0.045492044	1.1889715	0.20946409	0.10179168	1.5570783	0.038769292	0.0014228769	1.1249224	0.26408131	0.11680862	1.6888149	0.43520484	-0.064690714	1.4950422	0.38915506	0.21617066	1.6646904	0.43253196	0.053652439	1.4920417	0.36809984	0.082132351	1.538632	0.80293257	-0.13275731	1.4677053	0.76257108	0.20475142	1.5975544	0.83901403	-0.077704923	1.5761109	0.81575985	0.16652835	1.398833	0.90583206	0.04049912	1.5159419	1.3035423	-0.1534997	1.5224432	1.30235	0.21042938	1.4393747	1.3450566	0.02897179	1.4327723	0.99453402	-0.18982545	1.4869254	0.98504532	0.29659941	1.5418212	0.77997795	-0.23997914	1.6990517	0.85623432	0.27614111
444	1.772	1.75803	0.03361597	-0.017260037	1.1700848	0.082092901	0.15153049	1.6339009	0.06487289	-0.041480401	1.1620239	0.221795	0.18119833	1.6340097	0.079808872	0.045407904	1.2021383	0.21083346	0.10197775	1.5570187	0.038776213	0.001504989	1.137121	0.26454794	0.11677152	1.6906744	0.43491746	-0.064968791	1.5073901	0.39090585	0.21648556	1.6666098	0.43226463	0.053411668	1.5040699	0.37015951	0.082245953	1.5438981	0.80396362	-0.13303328	1.4756254	0.76360111	0.20448379	1.6027935	0.84013748	-0.078013783	1.581645	0.81762116	0.16631954	1.4045626	0.90721715	0.040367043	1.5221056	1.3052779	-0.15366481	1.5277149	1.3040205	0.21038426	1.4452208	1.3466205	0.028626835	1.44096	0.99534518	-0.19049399	1.4916356	0.98671796	0.29545988	1.5531633	0.78211263	-0.23955948	1.7006048	0.85406761	0.27670948
445	1.776	1.7580032	0.033608252	-0.017343259	1.1861074	0.08316806	0.15279355	1.6338473	0.064788336	-0.041432358	1.1753638	0.22274231	0.181303	1.6343908	0.080006947	0.045305553	1.2154292	0.21194926	0.10213952	1.5569854	0.038808365	0.0016262347	1.1495006	0.26473384	0.11663178	1.6924683	0.43468423	-0.065145891	1.5196687	0.39284196	0.21674086	1.6683874	0.43210015	0.053252905	1.5162571	0.37220284	0.082390617	1.5489731	0.80497043	-0.13329815	1.4834406	0.76468656	0.2042529	1.6080424	0.84128133	-0.078349393	1.5871644	0.81952104	0.16612093	1.4102657	0.90861564	0.040227429	1.5282679	1.3070974	-0.15382903	1.5329967	1.3057154	0.21034275	1.4510644	1.3482129	0.028319064	1.4491492	0.99621452	-0.19117924	1.4959308	0.98847413	0.29440073	1.5644873	0.78435904	-0.23909674	1.7020677	0.85204449	0.27730372
446	1.78	1.7579876	0.033596637	-0.017411431	1.2022894	0.084049235	0.1541081	1.6338144	0.064759873	-0.041458258	1.1888032	0.22342065	0.18140895	1.6348016	0.080214782	0.045210616	1.2288681	0.21282556	0.10231668	1.556964	0.038876794	0.0016996843	1.1620398	0.26464923	0.11644625	1.6942062	0.43449589	-0.065221917	1.5318331	0.39496079	0.21694443	1.6700381	0.43203062	0.053180705	1.5285235	0.3742329	0.082508328	1.5539563	0.80595695	-0.13354236	1.4911394	0.76582643	0.20406139	1.613382	0.84245008	-0.07874954	1.5926765	0.82145226	0.16592997	1.4159443	0.9100247	0.040081389	1.5344261	1.3089689	-0.15398804	1.5382962	1.3074285	0.21030936	1.4569102	1.3498368	0.028055192	1.4573357	0.99713244	-0.1918697	1.49973	0.9902881	0.29343477	1.5757969	0.78671132	-0.23858839	1.7034492	0.85016525	0.27792753
447	1.784	1.7579779	0.033583505	-0.01746507	1.2185839	0.084758959	0.1554582	1.6338026	0.064808247	-0.0415735	1.2023473	0.22384537	0.18152826	1.6350912	0.080377426	0.045150109	1.2424611	0.21346279	0.10252244	1.5569424	0.038970707	0.0017132661	1.174676	0.26428066	0.11630752	1.6958998	0.4343413	-0.065198346	1.5438617	0.39725587	0.21710045	1.6715829	0.43204052	0.053197828	1.5407614	0.37626789	0.082554448	1.5589933	0.80692041	-0.13375295	1.4987104	0.76701973	0.20391189	1.6187942	0.84364685	-0.079208409	1.5981887	0.82340755	0.16574419	1.4216003	0.91144155	0.039930029	1.5405456	1.3108521	-0.15412356	1.54362	1.3091628	0.21029812	1.462751	1.3514792	0.027827816	1.4655142	0.99809296	-0.19255055	1.5032002	0.9921397	0.2925475	1.5871343	0.78917064	-0.23802713	1.7047505	0.84843023	0.27857332
